<svg xmlns="http://www.w3.org/2000/svg" width="1577" height="575" viewBox="0 0 1577 575" version="1.1">
    <path d="M 125.250 71.155 L -0 142.193 -0 254.117 L -0 366.041 3.750 364.064 L 7.500 362.087 46 340.235 L 84.500 318.383 85 254.598 L 85.500 190.813 167.500 144.299 L 249.500 97.785 251.207 97.287 L 252.914 96.789 336.457 144.125 L 420 191.461 420.005 255.481 L 420.010 319.500 460.583 342.500 L 501.157 365.500 502.583 365.824 L 504.009 366.148 503.754 254.406 L 503.500 142.664 377.578 71.332 L 251.656 -0 251.078 0.059 L 250.500 0.118 125.250 71.155 M 619 253.500 L 619 365 650.500 365 L 682 365 682 320.500 L 682 276 719.500 276 L 757 276 757 320.500 L 757 365 788.500 365 L 820 365 820 253.500 L 820 142 788.500 142 L 757 142 757 183.500 L 757 225 719.500 225 L 682 225 682 183.500 L 682 142 650.500 142 L 619 142 619 253.500 M 886 253.500 L 886 365 958 365 L 1030 365 1030 340 L 1030 315 989.500 315 L 949 315 949 295.500 L 949 276 984.500 276 L 1020 276 1020 252 L 1020 228 984.500 228 L 949 228 949 210 L 949 192 989.500 192 L 1030 192 1030 167 L 1030 142 958 142 L 886 142 886 253.500 M 1078 142.558 L 1078 143.116 1114.312 195.808 L 1150.624 248.500 1151.375 249.756 L 1152.126 251.013 1117.409 305.756 L 1082.693 360.500 1081.231 362.750 L 1079.770 365 1115.635 364.980 L 1151.500 364.960 1169.353 334.480 L 1187.206 304 1187.937 304 L 1188.667 304 1209.584 334.469 L 1230.500 364.937 1267.250 364.969 L 1304 365 1304 364.406 L 1304 363.813 1266.439 309.286 L 1228.879 254.759 1229.328 253.587 L 1229.778 252.415 1262.531 200.958 L 1295.283 149.500 1297.654 145.750 L 1300.025 142 1264.225 142 L 1228.425 142 1210.962 171.961 L 1193.500 201.922 1193 201.956 L 1192.500 201.989 1172 172.012 L 1151.500 142.034 1114.750 142.017 L 1078 142 1078 142.558 M 1384.019 247.250 L 1345.674 352.500 1343.340 358.763 L 1341.007 365.027 1374.170 364.763 L 1407.334 364.500 1413.250 346.750 L 1419.167 329 1458.365 329 L 1497.562 329 1503.500 347 L 1509.438 365 1542.623 365 L 1575.808 365 1574.029 360.250 L 1572.250 355.500 1533.502 248.750 L 1494.753 142 1458.558 142 L 1422.363 142 1384.019 247.250 M 1446.723 245.500 L 1435.146 280.500 1447.131 280.781 L 1459.115 281.062 1470.393 280.781 L 1481.670 280.500 1469.985 245.500 L 1458.299 210.500 1446.723 245.500 M 223.790 238.883 L 196.081 254.500 196.290 398.882 L 196.500 543.263 223.358 558.632 L 250.216 574 251.232 574 L 252.248 574 280.624 557.790 L 309 541.579 308.998 398.540 L 308.996 255.500 284.342 241.500 L 259.688 227.500 255.594 225.383 L 251.500 223.265 223.790 238.883 M 662.276 430.511 L 656.051 431.864 649.034 435.551 L 642.017 439.239 635.594 446.048 L 629.171 452.857 626.160 459.178 L 623.150 465.500 621.447 473.936 L 619.743 482.372 620.383 490.043 L 621.023 497.714 622.607 503.107 L 624.191 508.500 627.224 514.229 L 630.257 519.959 635.378 525.475 L 640.500 530.992 646.500 534.532 L 652.500 538.073 658.855 540.036 L 665.211 542 674.355 541.988 L 683.500 541.976 688.992 540.515 L 694.485 539.053 700.791 535.852 L 707.096 532.652 712.928 526.418 L 718.760 520.184 721.301 514.842 L 723.842 509.500 713.171 509.205 L 702.500 508.909 701.500 510.639 L 700.500 512.369 696.727 516.571 L 692.954 520.773 687.727 523.091 L 682.500 525.408 674 525.432 L 665.500 525.457 659.852 522.830 L 654.204 520.204 650.136 516.136 L 646.068 512.068 643.671 507.284 L 641.274 502.500 640.007 497.125 L 638.741 491.750 639.252 482.625 L 639.763 473.500 641.935 467.798 L 644.108 462.097 648.601 457.099 L 653.095 452.101 658.797 449.300 L 664.500 446.500 674.500 446.500 L 684.500 446.500 690 449.594 L 695.500 452.688 699 457.808 L 702.500 462.928 713.263 462.964 L 724.027 463 722.481 459.250 L 720.935 455.500 717.235 450.090 L 713.536 444.680 708.518 440.688 L 703.500 436.697 698.335 434.314 L 693.170 431.931 686.335 430.483 L 679.500 429.035 674 429.097 L 668.500 429.159 662.276 430.511 M 1275.276 430.511 L 1269.051 431.864 1262.034 435.551 L 1255.017 439.239 1248.594 446.048 L 1242.171 452.857 1239.160 459.178 L 1236.150 465.500 1234.447 473.936 L 1232.743 482.372 1233.392 490.146 L 1234.040 497.919 1235.984 504.209 L 1237.927 510.500 1241.467 516.500 L 1245.007 522.500 1250.976 528.099 L 1256.945 533.699 1263.223 536.789 L 1269.501 539.880 1274.501 541.020 L 1279.500 542.161 1287.500 542.161 L 1295.500 542.161 1300.469 541.027 L 1305.437 539.894 1311.609 536.948 L 1317.781 534.002 1323.071 529.251 L 1328.360 524.500 1332.147 518.646 L 1335.934 512.792 1338.030 507.191 L 1340.125 501.591 1341.190 493.338 L 1342.256 485.085 1341.132 477.529 L 1340.008 469.973 1338.006 464.276 L 1336.003 458.578 1332.634 453.539 L 1329.265 448.500 1324.436 443.770 L 1319.606 439.041 1312.810 435.470 L 1306.015 431.899 1299.257 430.467 L 1292.500 429.035 1287 429.097 L 1281.500 429.159 1275.276 430.511 M 1529.045 430.029 L 1524.591 430.966 1519.331 433.539 L 1514.071 436.112 1510.111 440.612 L 1506.150 445.111 1504.575 449.734 L 1503 454.356 1503 460.812 L 1503 467.268 1504.176 471.193 L 1505.352 475.118 1509.303 479.607 L 1513.253 484.095 1518.037 486.519 L 1522.820 488.942 1533.660 492.133 L 1544.500 495.324 1547.629 496.625 L 1550.759 497.926 1553.860 500.536 L 1556.962 503.146 1558.020 507.073 L 1559.077 511 1558.054 514.798 L 1557.032 518.595 1554.266 521.234 L 1551.500 523.873 1548.685 524.936 L 1545.870 526 1539.583 526 L 1533.296 526 1529.922 523.726 L 1526.548 521.452 1524.274 518.078 L 1522 514.704 1522 512.352 L 1522 510 1511.912 510 L 1501.824 510 1502.512 514.250 L 1503.199 518.500 1505.147 523 L 1507.096 527.500 1511.180 531.673 L 1515.265 535.846 1520.963 538.403 L 1526.661 540.960 1533.331 541.905 L 1540 542.849 1546.642 541.909 L 1553.284 540.968 1557.609 539.055 L 1561.934 537.141 1566.860 532.534 L 1571.785 527.928 1574.129 522.714 L 1576.474 517.500 1576.444 509 L 1576.415 500.500 1574.597 497 L 1572.780 493.500 1569.140 489.665 L 1565.500 485.831 1562 484.028 L 1558.500 482.225 1545.857 478.187 L 1533.214 474.150 1529.122 472.062 L 1525.029 469.974 1523.425 467.525 L 1521.820 465.076 1521.297 461.177 L 1520.774 457.278 1522.493 453.655 L 1524.213 450.032 1527.764 447.837 L 1531.316 445.642 1537.408 445.587 L 1543.500 445.532 1547.797 447.977 L 1552.094 450.421 1554.291 455.211 L 1556.488 460 1566.289 460 L 1576.091 460 1575.424 456.250 L 1574.757 452.500 1572.743 447.721 L 1570.728 442.941 1565.816 438.524 L 1560.903 434.108 1555.202 431.949 L 1549.500 429.791 1541.500 429.442 L 1533.500 429.093 1529.045 430.029 M 891 485.500 L 891 541 920.500 541 L 950 541 950 533.500 L 950 526 929.500 526 L 909 526 909 509.523 L 909 493.045 927.250 492.773 L 945.500 492.500 945.500 485 L 945.500 477.500 927.250 477.227 L 909 476.955 909 461.477 L 909 446 929.500 446 L 950 446 950 438 L 950 430 920.500 430 L 891 430 891 485.500 M 1026.911 432.715 L 1025.845 435.500 1007.923 487.829 L 990 540.158 990 540.579 L 990 541 999.417 541 L 1008.835 541 1012.500 530 L 1016.165 519 1037.872 519 L 1059.578 519 1063.410 530 L 1067.242 541 1076.688 541 L 1086.135 541 1085.574 539.250 L 1085.013 537.500 1066.657 484 L 1048.301 430.500 1038.139 430.215 L 1027.977 429.930 1026.911 432.715 M 769 486 L 769 541 778 541 L 787 541 787 519 L 787 497 793.250 497.015 L 799.500 497.029 811.500 518.992 L 823.500 540.955 834.276 540.978 L 845.051 541 843.619 538.250 L 842.187 535.500 831.094 516.145 L 820 496.790 820.004 496.145 L 820.007 495.500 824.701 493.570 L 829.394 491.639 833.275 488.133 L 837.155 484.627 839.550 479.901 L 841.945 475.176 842.812 469.642 L 843.680 464.109 842.959 458.805 L 842.238 453.500 840.744 449.927 L 839.250 446.355 835.917 442.559 L 832.585 438.763 828.946 436.466 L 825.307 434.169 819.972 432.584 L 814.637 431 791.818 431 L 769 431 769 486 M 1121.206 438.250 L 1121.500 445.500 1135.750 445.777 L 1150 446.055 1150 493.527 L 1150 541 1159 541 L 1168 541 1168 493.500 L 1168 446 1182 446 L 1196 446 1196 438.500 L 1196 431 1158.456 431 L 1120.912 431 1121.206 438.250 M 1383 486 L 1383 541 1392 541 L 1401 541 1401 519 L 1401 497 1407.250 497.015 L 1413.500 497.029 1425.500 518.992 L 1437.500 540.955 1448.276 540.978 L 1459.051 541 1457.619 538.250 L 1456.187 535.500 1445.094 516.145 L 1434 496.790 1434.004 496.145 L 1434.007 495.500 1438.701 493.570 L 1443.394 491.639 1447.275 488.133 L 1451.155 484.627 1453.550 479.901 L 1455.945 475.176 1456.812 469.642 L 1457.680 464.109 1456.959 458.805 L 1456.238 453.500 1454.744 449.927 L 1453.250 446.355 1449.917 442.559 L 1446.585 438.763 1442.946 436.466 L 1439.307 434.169 1433.972 432.584 L 1428.637 431 1405.818 431 L 1383 431 1383 486 M 787 463.902 L 787 482 799.288 482 L 811.576 482 816.015 479.750 L 820.454 477.500 822.322 474.244 L 824.191 470.989 824.668 465.244 L 825.145 459.500 822.823 455.023 L 820.500 450.546 817 448.523 L 813.500 446.500 800.250 446.152 L 787 445.804 787 463.902 M 1276.324 447.382 L 1272.148 448.745 1268.603 450.936 L 1265.058 453.127 1261.062 457.667 L 1257.067 462.206 1254.915 467.853 L 1252.763 473.500 1252.252 482.625 L 1251.741 491.750 1252.992 497.125 L 1254.243 502.500 1257.279 508.285 L 1260.316 514.070 1263.862 517.184 L 1267.409 520.298 1272.954 522.899 L 1278.500 525.500 1287.521 525.500 L 1296.542 525.500 1303.314 522.166 L 1310.086 518.832 1313.970 513.918 L 1317.855 509.004 1320.039 503.252 L 1322.223 497.500 1322.739 488.956 L 1323.254 480.411 1322.142 475.227 L 1321.030 470.043 1318.921 465.555 L 1316.811 461.067 1312.870 456.590 L 1308.929 452.112 1303.295 449.356 L 1297.662 446.600 1289.081 446.309 L 1280.500 446.019 1276.324 447.382 M 1401 463.902 L 1401 482 1413.288 482 L 1425.576 482 1430.015 479.750 L 1434.454 477.500 1436.322 474.244 L 1438.191 470.989 1438.668 465.244 L 1439.145 459.500 1436.823 455.023 L 1434.500 450.546 1431 448.523 L 1427.500 446.500 1414.250 446.152 L 1401 445.804 1401 463.902 M 1029.726 478.299 L 1022 501.546 1022 502.273 L 1022 503 1038 503 L 1054 503 1054 502.327 L 1054 501.655 1046.340 479.077 L 1038.680 456.500 1038.066 455.776 L 1037.451 455.051 1029.726 478.299" stroke="none" fill="#fffcfc" fillRule="evenodd"/>
    <path d="" stroke="none" fill="#fcfcfc" fillRule="evenodd"/>
</svg>